<svg width="15" height="15" viewBox="0 0 15 15" fill="none" xmlns="http://www.w3.org/2000/svg">
<path d="M7.5 0C3.35802 0 0 3.35802 0 7.5C0 11.642 3.35802 15 7.5 15C11.642 15 15 11.642 15 7.5C15 3.35802 11.642 0 7.5 0ZM10.1173 11.2994C9.89198 11.4012 9.65741 11.4877 9.41667 11.5525C8.50309 11.8056 7.58951 11.8148 6.67901 11.5185C5.58025 11.1636 4.85185 10.4136 4.41667 9.3642C4.33333 9.16049 4.27778 8.94753 4.21296 8.73457H3.35185C3.20679 8.73457 3.09259 8.61728 3.09259 8.47531V7.89506C3.09259 7.75 3.20988 7.6358 3.35185 7.6358H4.06481C4.06481 7.47531 4.06481 7.32407 4.06481 7.16358H3.35185C3.20679 7.16358 3.09259 7.0463 3.09259 6.90432V6.32407C3.09259 6.17901 3.20988 6.06482 3.35185 6.06482H4.25926L4.29012 5.97531C4.53395 5.20062 4.9537 4.53704 5.59877 4.03704C6.11111 3.63889 6.7037 3.41975 7.33951 3.3179C8.24383 3.17284 9.12037 3.2963 9.96914 3.62963C10.0247 3.65123 10.0772 3.67593 10.1296 3.70679C10.3333 3.82716 10.3858 3.97839 10.2963 4.19753C10.2006 4.42593 10.1049 4.65741 10 4.88272C9.91049 5.07716 9.78704 5.13889 9.57716 5.09259C9.29012 5.02778 9.00926 4.93827 8.72222 4.87963C8.11728 4.75617 7.51543 4.75 6.92593 4.98148C6.41975 5.1821 6.11111 5.5679 5.90123 6.04938C5.89815 6.05556 5.89815 6.06173 5.89815 6.0679H7.66049C7.80556 6.0679 7.91975 6.18519 7.91975 6.32716V6.90741C7.91975 7.05247 7.80247 7.16667 7.66049 7.16667H5.64815C5.64506 7.32099 5.64815 7.47531 5.64815 7.63889H7.66358C7.80864 7.63889 7.92284 7.75617 7.92284 7.89815V8.4784C7.92284 8.62346 7.80556 8.73765 7.66358 8.73765H5.82407C6.0463 9.37346 6.40741 9.8642 7.08642 10.0772C7.62963 10.2469 8.17593 10.2377 8.72531 10.1235C9.00926 10.0648 9.28704 9.9784 9.57099 9.91358C9.79321 9.8642 9.91358 9.92284 10.0062 10.1265C10.1111 10.3549 10.2099 10.5864 10.3025 10.821C10.3889 11.0309 10.3333 11.2006 10.1173 11.2994Z" fill="black"/>
</svg>
