<svg width="15" height="15" viewBox="0 0 15 15" fill="none" xmlns="http://www.w3.org/2000/svg">
<g clip-path="url(#clip0)">
<path d="M14.996 6.35082C14.9802 6.23524 14.9192 6.13062 14.8264 6.05999L7.7663 0.690887C7.60894 0.571238 7.39109 0.571238 7.23374 0.690887L0.173618 6.05999C0.0807472 6.1306 0.019751 6.23524 0.00401856 6.35082C-0.0117139 6.46643 0.0191358 6.58355 0.0897414 6.67643L1.07948 7.97785L7.23374 3.29761C7.39109 3.17796 7.60892 3.17796 7.7663 3.29761L13.9206 7.97785L14.9103 6.67643C14.9809 6.58355 15.0117 6.46645 14.996 6.35082Z" fill="black"/>
<path d="M9.38135 10.4557C9.04174 10.4557 8.76544 10.732 8.76544 11.0716C8.76544 11.4111 9.04171 11.6875 9.38135 11.6875C9.72099 11.6875 9.99726 11.4112 9.99726 11.0716C9.99723 10.732 9.72093 10.4557 9.38135 10.4557Z" fill="black"/>
<path d="M5.61875 7.76378C5.27914 7.76378 5.00284 8.04008 5.00284 8.37969C5.00284 8.71927 5.27911 8.9956 5.61875 8.9956C5.95836 8.9956 6.23466 8.7193 6.23466 8.37969C6.23466 8.04008 5.95833 7.76378 5.61875 7.76378Z" fill="black"/>
<path d="M7.50003 4.20036L2.10986 8.29951V13.959C2.10986 14.2019 2.30683 14.3989 2.54976 14.3989H12.4501C12.693 14.3989 12.89 14.2019 12.89 13.959V8.29936L7.50003 4.20036ZM4.12306 8.37969C4.12306 7.55498 4.79399 6.88403 5.61873 6.88403C6.44347 6.88403 7.11439 7.55496 7.11439 8.37969C7.11439 9.20443 6.44347 9.87536 5.61873 9.87536C4.79399 9.87536 4.12306 9.2044 4.12306 8.37969ZM6.12137 12.5673C6.04714 12.5673 5.97187 12.5484 5.90285 12.5089C5.69212 12.388 5.61937 12.1191 5.74028 11.9084L8.4968 7.10495C8.61771 6.89422 8.88654 6.82151 9.09727 6.94238C9.308 7.06329 9.38075 7.33212 9.25984 7.54286L6.50332 12.3463C6.42199 12.488 6.27381 12.5673 6.12137 12.5673ZM9.38136 12.5672C8.55665 12.5672 7.88569 11.8963 7.88569 11.0716C7.88569 10.2468 8.55662 9.57589 9.38136 9.57589C10.2061 9.57589 10.877 10.2468 10.877 11.0716C10.877 11.8963 10.206 12.5672 9.38136 12.5672Z" fill="black"/>
</g>
<defs>
<clipPath id="clip0">
<rect width="15" height="15" fill="white"/>
</clipPath>
</defs>
</svg>
