<svg width="15" height="15" viewBox="0 0 15 15" fill="none" xmlns="http://www.w3.org/2000/svg">
<path d="M8.176 10.7764V11.3699C8.176 11.7508 7.86718 12.0596 7.48623 12.0596C7.10528 12.0596 6.79646 11.7508 6.79646 11.3699V10.7764H0V13.0987L1.50756 14.6062H13.4924L15 13.0986V10.7764H8.176Z" fill="black"/>
<path d="M3.97229 6.76321H11.6357V8.52103H3.97229V6.76321Z" fill="black"/>
<path d="M0 6.76321H3.09337V8.52103H0V6.76321Z" fill="black"/>
<path d="M11.6357 4.28851C11.6357 4.0462 11.8328 3.84906 12.0751 3.84906H13.6816C14.4085 3.84906 14.9999 3.25764 14.9999 2.5307C14.9999 1.80375 14.4085 1.21234 13.6816 1.21234H12.9997C12.7574 1.21234 12.5602 1.0152 12.5602 0.772885V0.393784H11.6813V0.772885C11.6813 1.49983 12.2727 2.09124 12.9997 2.09124H13.6816C13.9239 2.09124 14.121 2.28838 14.121 2.5307C14.121 2.77301 13.9239 2.97015 13.6816 2.97015H12.0751C11.3482 2.97015 10.7568 3.56157 10.7568 4.28851V4.899H11.6357V4.28851Z" fill="black"/>
</svg>
