<svg width="30" height="35" viewBox="0 0 30 35" fill="none" xmlns="http://www.w3.org/2000/svg">
<path d="M22.1246 32.3405C22.3208 31.9725 22.4659 31.7049 22.6024 31.4373C22.5853 31.4205 22.5597 31.4038 22.5427 31.3871C21.8174 31.9558 21.0921 32.5161 20.3669 33.0848C20.3498 33.0765 20.3328 33.0597 20.3157 33.0514C20.3669 32.9427 20.4096 32.8423 20.4607 32.7336C19.5819 33.4026 18.6775 34.0048 17.4915 34.2808C17.6792 34.08 17.8072 33.9462 17.9437 33.8041C17.9266 33.779 17.9181 33.7622 17.901 33.7372C17.4317 33.9211 16.9369 34.055 16.5102 34.3059C15.4607 34.9247 14.4625 34.9164 13.413 34.2975C12.9949 34.055 12.5085 33.9211 12.0136 33.8041C12.1331 33.9379 12.2526 34.0717 12.372 34.1971C12.3549 34.2306 12.3464 34.2557 12.3293 34.2891C11.8259 34.0717 11.3055 33.8877 10.8276 33.6201C10.3413 33.3441 9.91467 32.9761 9.41126 32.6165C9.50512 32.7921 9.57338 32.9259 9.6331 33.0514C9.62457 33.0681 9.60751 33.0848 9.59897 33.1016C8.86519 32.5329 8.1314 31.9558 7.40614 31.3871C7.38908 31.4038 7.36348 31.4122 7.34641 31.4289C7.4744 31.6882 7.61092 31.9558 7.73891 32.2151C6.97952 31.7802 6.27133 31.2616 5.87884 30.509C5.50341 29.7814 5.2901 28.9701 5.03413 28.2593C4.96587 28.4683 4.86348 28.7611 4.76109 29.0538C4.66723 27.9331 4.343 26.963 3.27645 26.2437C3.36177 26.503 3.41297 26.6702 3.47269 26.8459C2.60239 26.0932 1.87713 25.2569 1.74061 24.0693C1.70648 24.0693 1.67235 24.0693 1.63822 24.0693C1.61263 24.3787 1.58703 24.6882 1.54437 25.098C1.14334 24.6631 0.964161 24.2115 1.01536 23.7264C1.09215 22.9988 1.25426 22.2712 1.39931 21.552C1.45904 21.2593 1.56143 20.9665 1.58703 20.632C1.44198 20.7658 1.29693 20.8996 1.06655 21.1087C1.22867 20.6487 1.38225 20.2975 1.47611 19.9295C1.64676 19.2521 1.78327 18.5747 1.91979 17.8889C1.93686 17.8053 1.8942 17.6464 1.82594 17.6129C0.691124 16.9773 0.401021 15.8734 0.264503 14.7443C0.187711 14.0669 0.230373 13.3477 0.392489 12.6786C0.665527 11.5412 1.45904 11.0896 2.77304 11.1565C2.88396 10.7216 2.97781 10.2784 3.12286 9.85185C3.26792 9.44206 3.47269 9.04062 3.67747 8.58065C3.34471 8.73118 3.06314 8.85663 2.78157 8.97372C3.66894 8.07885 4.62457 7.24253 5.32423 6.13859C5.00853 6.18877 4.74403 6.23059 4.38566 6.28077C5.39249 5.5448 5.99829 4.59976 6.62969 3.67981C7.29522 2.70968 7.96075 1.78973 9.32594 1.58901C9.16382 1.49701 9.09556 1.4552 9.0273 1.41338C9.04437 1.38829 9.0529 1.35484 9.06996 1.34648C10.3754 1.0454 11.6724 0.75269 12.9693 0.459978C14.4539 0.117086 15.93 0.183992 17.3976 0.560336C18.5665 0.861411 19.7355 1.12903 20.9215 1.41338C20.8618 1.44684 20.7935 1.48865 20.6826 1.55556C20.785 1.59737 20.8703 1.63919 20.9556 1.66428C21.7662 1.89845 22.3891 2.35842 22.8669 3.05257C23.3703 3.7969 23.9078 4.51613 24.4625 5.21864C24.7526 5.58662 25.1024 5.91279 25.4437 6.2724C25.1962 6.23895 24.9317 6.2055 24.6672 6.16368C24.6331 6.19713 24.6075 6.23059 24.5734 6.26404C25.4352 7.1589 26.2884 8.06213 27.1587 8.95699C26.8942 8.84827 26.6041 8.72282 26.3567 8.62246C26.6468 9.45878 26.9369 10.2951 27.2355 11.1565C27.3294 11.1481 27.4829 11.1314 27.6365 11.1398C28.4642 11.1732 29.1212 11.5245 29.4113 12.2855C30.0683 13.9833 29.8123 15.5974 28.7799 17.0944C28.686 17.2282 28.558 17.3787 28.4044 17.4289C27.9607 17.5795 27.9863 17.8805 28.0717 18.2234C28.3106 19.1601 28.541 20.1051 28.7628 21.0084C28.6604 20.9164 28.5068 20.7826 28.302 20.5986C28.558 21.92 29.2065 23.1159 28.814 24.4289C28.7543 24.6464 28.6007 24.8303 28.413 25.0143C28.3788 24.6882 28.3447 24.3704 28.302 24.0442C28.0802 25.2485 27.3464 26.1183 26.459 26.9128C26.5188 26.7288 26.587 26.5364 26.6553 26.3357C25.8447 26.6786 25.3925 27.5735 25.2048 29.0705C25.0939 28.7694 24.9829 28.4683 24.872 28.1756C24.6928 29.9821 23.7628 31.3202 22.1246 32.3405ZM6.30546 17.2533C7.51706 18.0729 8.74573 18.3489 10.1706 17.9642C9.98293 18.19 9.83788 18.3572 9.69283 18.5245C9.7099 18.5496 9.72696 18.5747 9.73549 18.5998C10.0597 18.466 10.384 18.3321 10.6655 18.2234C10.4778 18.6249 10.2304 19.043 10.1024 19.4863C9.82935 20.448 10.4863 21.0836 11.4761 20.8411C11.5273 20.8327 11.5785 20.8327 11.6553 20.8244C11.2457 21.2843 10.7082 21.2509 9.9488 20.7575C8.83106 21.7276 8.00341 23.2581 8.15699 24.1111C8.37884 23.8017 8.58362 23.509 8.85665 23.1326C8.7372 23.8519 8.27645 24.4205 8.63481 25.1147C8.78839 25.0562 8.91638 24.9892 9.0529 24.9558C9.50512 24.8471 9.65017 24.5878 9.6587 24.1278C9.67577 23.5257 9.83788 22.9319 9.94027 22.3297C9.95734 22.3381 9.98293 22.3381 10 22.3465C9.9488 23.0824 9.88908 23.8184 9.83788 24.5627C10.3754 24.5376 10.5802 24.3787 10.5034 23.9104C10.4522 23.6177 10.529 23.3082 10.5546 23.0072C10.6399 23.2246 10.6314 23.4337 10.6399 23.6428C10.657 23.8602 10.6911 24.0777 10.7167 24.3453C13.5324 23.5173 16.3225 23.3501 19.1638 24.2031C19.198 23.7849 19.2321 23.417 19.2577 23.0573C19.3174 23.1326 19.3345 23.1995 19.3345 23.2664C19.343 23.4504 19.3515 23.626 19.3515 23.81C19.3515 24.3536 19.4113 24.4122 20.0768 24.4456C19.9915 23.6679 19.9147 22.8984 19.8379 22.1207C20.0341 22.8399 20.1451 23.5759 20.273 24.3118C20.2986 24.4373 20.3157 24.6129 20.401 24.6714C20.6399 24.822 20.9215 24.9307 21.2031 25.0562C21.4761 24.3871 21.041 23.8519 20.9642 23.1661C21.2287 23.5424 21.4249 23.8268 21.6297 24.1195C21.5956 22.681 20.785 21.6691 19.8379 20.724C19.1553 21.276 18.4471 21.2843 18.1058 20.7742C19.1894 21.1338 19.9147 20.5986 19.7099 19.5783C19.6502 19.2939 19.5222 19.0263 19.3942 18.767C19.2833 18.5329 19.1297 18.3238 19.0273 18.1649C19.3771 18.307 19.7782 18.4743 20.1706 18.6332C20.1792 18.5998 20.1877 18.5747 20.2048 18.5412C20.0171 18.3321 19.8379 18.1231 19.6502 17.914C21.041 18.466 22.244 18.0394 23.4642 17.3035C23.3106 17.5544 23.2082 17.7216 23.0631 17.9474C25.0427 17.0526 25.5973 13.5066 24.599 12.5448C24.599 12.8542 24.599 13.147 24.599 13.4982C23.8737 11.9677 23.1058 11.1983 22.0392 10.9056C22.1843 11.2067 22.3208 11.491 22.4573 11.7754C20.5205 10.454 18.7969 10.8136 17.1672 12.3106C17.4573 11.5663 18.0717 11.2485 18.7287 10.9642C18.5068 10.9391 18.3106 10.9474 18.1143 10.9892C17.1331 11.1816 16.2628 11.6249 15.4607 12.1852C15.0256 12.4863 14.744 12.4444 14.3089 12.1852C13.5836 11.7503 12.7986 11.4158 12.0222 11.0812C11.7406 10.9642 11.4078 10.9642 11.0921 10.9056C11.0836 10.9391 11.0666 10.9725 11.058 11.006C11.6809 11.282 12.3293 11.5329 12.628 12.3274C11.8003 11.6834 11.0495 11.0896 10.0597 10.9809C9.0529 10.8722 8.20819 11.3489 7.27816 11.8674C7.46587 11.4827 7.60239 11.19 7.78157 10.8387C6.5273 11.4241 5.57167 12.1517 5.17065 13.4648C5.17065 13.1804 5.17065 12.8961 5.17065 12.5532C4.15529 13.8076 4.94027 17.2282 6.71501 17.9223C6.5785 17.6882 6.46758 17.5125 6.30546 17.2533ZM19.6672 28.6774C19.7014 29.6141 19.1212 30.2664 18.6604 31.0275C20.7167 29.9821 21.7491 27.6153 21.0921 25.5579C21.0495 25.4325 20.93 25.2987 20.802 25.2318C20.3242 24.9892 19.8464 24.7384 19.343 24.5544C16.1092 23.3501 12.9352 23.693 9.77816 24.8889C8.95904 25.1983 8.61775 25.6583 8.51536 26.5114C8.30205 28.2676 9.43686 30.0657 11.1348 31.0024C10.6997 30.2832 10.1109 29.6559 10.1536 28.7276C10.4266 29.1207 10.6655 29.4552 10.913 29.7981C10.9471 29.7814 10.9898 29.7563 11.0239 29.7395C10.9898 29.0705 10.9556 28.3931 10.9215 27.724C10.9471 27.7157 10.9727 27.7157 10.9898 27.7073C11.1519 28.1087 11.314 28.5102 11.4761 28.9032C11.5188 27.7993 11.5102 26.7204 12.3379 25.8423C12.1331 26.503 12.1843 27.0968 12.6706 27.5484C12.884 27.0215 13.0973 26.503 13.3106 25.9845C13.3447 26.0012 13.3703 26.0096 13.4044 26.0263C13.3703 26.3859 13.3362 26.7455 13.2935 27.1971C14.3942 26.5866 15.4096 26.5866 16.4846 27.1219C16.4505 26.6953 16.4164 26.3608 16.3908 26.0263C16.4249 26.0179 16.459 26.0012 16.4846 25.9928C16.698 26.5197 16.9113 27.0382 17.116 27.5567C17.6195 27.08 17.628 26.4863 17.4915 25.8256C17.773 26.3023 18.0375 26.779 18.1485 27.2891C18.2594 27.7993 18.2253 28.3513 18.2679 29.0119C18.4812 28.5018 18.6433 28.1004 18.8055 27.7073C18.8225 27.7157 18.8481 27.724 18.8652 27.7324C18.8311 28.4098 18.8055 29.0956 18.7713 29.773C18.814 29.7897 18.8567 29.7981 18.8908 29.8148C19.1468 29.4385 19.3942 29.0789 19.6672 28.6774ZM3.81399 13.0884C3.83959 13.08 3.85665 13.0717 3.88225 13.0717C3.78839 12.8542 3.72013 12.6368 3.60921 12.4361C3.31911 11.9259 2.89249 11.6081 2.26962 11.6332C1.62969 11.6583 1.20307 12.0346 1.00682 12.6033C0.529008 14.0418 0.742318 15.405 1.54437 16.6846C1.63822 16.8351 1.78327 16.9606 1.93686 17.0609C2.41467 17.3871 2.99488 17.2115 3.08873 16.6595C3.18259 16.1243 3.14846 15.5556 3.12286 15.0119C3.11433 14.7611 2.90102 14.5352 2.62798 14.6356C2.48293 14.6941 2.35495 14.9701 2.34641 15.1541C2.33788 15.3632 2.49147 15.5723 2.52559 15.7897C2.54266 15.9068 2.50853 16.1243 2.44027 16.1493C2.32082 16.1995 2.1331 16.1744 2.01365 16.1075C1.90273 16.049 1.80034 15.9152 1.75768 15.7897C1.33959 14.7527 1.30546 13.6989 1.74914 12.6619C1.97952 12.1183 2.43174 12.0012 2.93515 12.3357C3.25085 12.5448 3.52389 12.8292 3.81399 13.0884ZM26.0921 13.1302C26.3737 12.871 26.5956 12.6284 26.843 12.4361C27.4915 11.9343 28.0205 12.0848 28.285 12.8542C28.6007 13.7826 28.5666 14.7192 28.2509 15.6392C28.1997 15.7897 28.1058 15.957 27.9778 16.049C27.8584 16.1326 27.6706 16.1326 27.5171 16.1661C27.4829 16.0155 27.4061 15.865 27.4232 15.7228C27.4488 15.5221 27.6109 15.3214 27.5939 15.129C27.5768 14.945 27.4061 14.7694 27.3038 14.5938C27.1416 14.7109 26.843 14.828 26.8345 14.9618C26.8003 15.5639 26.8003 16.1744 26.8942 16.7682C26.9539 17.1529 27.4061 17.3118 27.7816 17.1446C27.9949 17.0526 28.2167 16.902 28.3447 16.718C29.215 15.405 29.4283 13.9833 28.8908 12.4946C28.7201 12.0096 28.3362 11.7001 27.7816 11.6249C26.9966 11.5245 26.314 12.1016 26.0921 13.1302Z" fill="black"/>
<path d="M6.30547 17.2533C6.46758 17.5126 6.57851 17.6882 6.71502 17.9056C4.94028 17.2115 4.1553 13.7909 5.17066 12.5364C5.17066 12.8793 5.17066 13.1637 5.17066 13.448C5.57168 12.1434 6.52731 11.4074 7.78158 10.822C7.61093 11.1816 7.46588 11.466 7.27816 11.8507C8.2082 11.3321 9.05291 10.8554 10.0597 10.9642C11.0495 11.0729 11.8003 11.6667 12.628 12.3106C12.3294 11.5161 11.6809 11.2652 11.058 10.9893C11.0666 10.9558 11.0836 10.9223 11.0922 10.8889C11.3993 10.9474 11.7406 10.9474 12.0222 11.0645C12.7986 11.3991 13.5836 11.7336 14.3089 12.1685C14.744 12.4277 15.0256 12.4695 15.4608 12.1685C16.2628 11.6081 17.1331 11.1565 18.1143 10.9725C18.3021 10.9391 18.5068 10.9223 18.7287 10.9474C18.0717 11.2318 17.4573 11.5496 17.1672 12.2939C18.7969 10.7969 20.5205 10.4373 22.4573 11.7587C22.3208 11.4743 22.1843 11.1816 22.0393 10.8889C23.0973 11.1816 23.8652 11.951 24.599 13.4815C24.599 13.1219 24.599 12.8292 24.599 12.5281C25.5973 13.4899 25.0341 17.0359 23.0631 17.9307C23.1997 17.7049 23.3106 17.5376 23.4642 17.2867C22.244 18.0227 21.041 18.4492 19.6502 17.8973C19.8379 18.1063 20.0171 18.3154 20.2048 18.5245C20.1963 18.558 20.1877 18.583 20.1707 18.6165C19.7782 18.4576 19.3857 18.2903 19.0273 18.1482C19.1297 18.3071 19.2833 18.5161 19.3942 18.7503C19.5222 19.0096 19.6502 19.2856 19.7099 19.5615C19.9147 20.5819 19.1894 21.1171 18.1058 20.7575C18.4471 21.276 19.1553 21.2593 19.8379 20.7073C20.785 21.6523 21.5956 22.6643 21.6297 24.1028C21.4249 23.8184 21.2287 23.5257 20.9642 23.1494C21.041 23.8351 21.4761 24.3704 21.2031 25.0394C20.9215 24.9056 20.6485 24.8053 20.401 24.6547C20.3157 24.5962 20.2901 24.4206 20.273 24.2951C20.1451 23.5592 20.0341 22.8232 19.8379 22.104C19.9147 22.8734 20 23.6428 20.0768 24.4289C19.4027 24.3955 19.3515 24.3369 19.3515 23.7933C19.3515 23.6093 19.343 23.4337 19.3345 23.2497C19.3345 23.1828 19.3174 23.1159 19.2577 23.0406C19.2236 23.4086 19.198 23.7766 19.1638 24.1864C16.314 23.3333 13.5324 23.5006 10.7167 24.3286C10.6826 24.0609 10.6485 23.8435 10.6399 23.6261C10.6314 23.417 10.6399 23.2079 10.5546 22.9905C10.5375 23.2915 10.4608 23.601 10.5034 23.8937C10.5802 24.362 10.384 24.5293 9.83789 24.546C9.88909 23.8017 9.94881 23.0657 10 22.3298C9.98294 22.3214 9.95735 22.3214 9.94028 22.313C9.83789 22.9068 9.67577 23.509 9.65871 24.1111C9.64164 24.5795 9.50513 24.8387 9.05291 24.9391C8.91639 24.9725 8.79694 25.0394 8.63482 25.098C8.27646 24.4038 8.73721 23.8351 8.85666 23.1159C8.58363 23.4922 8.37885 23.785 8.157 24.0944C8.00342 23.233 8.82253 21.7109 9.94881 20.7408C10.7082 21.2425 11.2457 21.2676 11.6553 20.8077C11.587 20.816 11.5273 20.816 11.4761 20.8244C10.4864 21.0669 9.82936 20.4313 10.1024 19.4695C10.2304 19.0263 10.4864 18.6081 10.6655 18.2067C10.384 18.3238 10.0597 18.4492 9.7355 18.583C9.71844 18.558 9.70137 18.5329 9.69284 18.5078C9.83789 18.3405 9.98294 18.1649 10.1707 17.9474C8.74574 18.3489 7.51707 18.0729 6.30547 17.2533ZM18.4386 17.7885C18.4556 17.7718 18.4727 17.7635 18.4898 17.7467C18.3191 17.3537 18.1485 16.9689 17.9864 16.5759C18.5239 16.7181 19.0444 16.8602 19.5563 16.994C19.3345 16.8017 19.087 16.7013 18.8481 16.5842C18.6178 16.4755 18.4044 16.3333 18.1826 16.2079C19.872 16.3752 20.8021 16.325 21.3737 15.9905C21.0922 16.0072 20.7935 16.0239 20.4949 16.0323C21.5017 15.6057 22.1928 14.92 22.6536 13.9331C21.6212 13.9331 20.6399 13.9331 19.6502 13.9331C20.5546 13.264 21.6638 13.3979 22.6963 13.239C21.2457 12.9881 19.872 13.0633 18.558 13.8495C17.628 14.4014 16.6041 14.8112 15.6314 15.2879C15.2389 15.4803 14.855 15.497 14.4454 15.3047C13.3191 14.7778 12.1502 14.3345 11.0666 13.7408C9.80376 13.055 8.50683 13.0048 7.15018 13.239C8.17407 13.3979 9.27475 13.2724 10.2645 14.0167C9.66724 13.9582 9.17236 13.8997 8.67748 13.8746C8.1826 13.8495 7.67919 13.8662 7.10752 13.8662C7.61946 14.9367 8.30206 15.6392 9.32595 16.0406C9.09557 16.0406 8.8652 16.0406 8.64335 16.0406C9.62458 16.3919 10.6058 16.3417 11.5956 16.1326C11.6041 16.1661 11.6126 16.1995 11.6297 16.233C11.1519 16.4672 10.6826 16.7013 10.2048 16.9355C10.2133 16.9606 10.2133 16.9773 10.2219 17.0024C10.7423 16.8686 11.2628 16.7264 11.8003 16.5926C11.6212 17.0191 11.442 17.4456 11.2543 17.8722C11.4591 17.6715 11.6126 17.4373 11.7406 17.2031C12.2184 16.3417 12.8754 15.7646 13.942 15.773C14.0102 15.773 14.0785 15.7479 14.1553 15.7396C15.1963 15.5054 16.1434 15.8065 17.0819 16.2079C17.756 16.5006 18.012 17.1195 18.3618 17.6631C18.3788 17.7049 18.413 17.7467 18.4386 17.7885ZM17.4061 20.0382C17.8157 19.9462 18.2423 19.8375 18.3106 19.3859C18.3788 18.9343 18.1997 18.5245 17.8157 18.2569C17.4232 17.9893 17.0222 18.1231 16.6553 18.3321C15.9812 18.7252 15.5034 19.2939 15.0512 19.9797C15.9898 20.1386 16.8515 20.1804 17.6877 19.8041C17.5939 19.8793 17.5 19.9546 17.4061 20.0382ZM14.6758 19.9964C14.1553 19.2186 13.6348 18.5663 12.8157 18.2151C12.4573 18.0562 12.0819 18.0478 11.7833 18.3405C11.4676 18.65 11.2884 19.043 11.4249 19.4779C11.5529 19.871 11.9369 19.963 12.2867 20.0633C12.2611 19.9964 12.2184 19.9713 12.1843 19.9295C12.1587 19.9044 12.1502 19.8626 12.099 19.7706C12.9522 20.1888 13.7628 20.1051 14.6758 19.9964ZM13.4727 16.4421C14.3942 16.4421 15.4096 16.4421 16.3225 16.4421C15.3584 15.8734 14.2662 15.8734 13.4727 16.4421ZM13.2423 14.3178C14.5563 15.221 15.5887 15.1876 16.442 14.2258C14.8635 14.9032 15.0683 14.9451 13.2423 14.3178Z" fill="white"/>
<path d="M19.6672 28.6774C19.3942 29.0788 19.1468 29.4385 18.8993 29.8064C18.8566 29.7897 18.814 29.7813 18.7799 29.7646C18.814 29.0872 18.8396 28.4014 18.8737 27.724C18.8566 27.7156 18.8311 27.7073 18.814 27.6989C18.6519 28.1003 18.4898 28.4934 18.2764 29.0036C18.2423 28.3429 18.2764 27.7993 18.157 27.2808C18.0461 26.7706 17.7816 26.2855 17.5 25.8172C17.6365 26.4779 17.628 27.0717 17.1246 27.5484C16.9198 27.0382 16.7065 26.5113 16.4932 25.9845C16.459 25.9928 16.4249 26.0095 16.3993 26.0179C16.4249 26.3524 16.459 26.6953 16.4932 27.1135C15.4181 26.5866 14.4027 26.5782 13.302 27.1888C13.3447 26.7371 13.3788 26.3775 13.413 26.0179C13.3788 26.0012 13.3532 25.9928 13.3191 25.9761C13.1058 26.4946 12.8925 27.0131 12.6792 27.54C12.1928 27.08 12.1416 26.4862 12.3464 25.8339C11.5102 26.7121 11.5188 27.7909 11.4846 28.8948C11.3225 28.4934 11.1604 28.092 10.9983 27.6989C10.9727 27.7073 10.9471 27.7073 10.93 27.7156C10.9642 28.3847 10.9983 29.0621 11.0324 29.7312C10.9983 29.7479 10.9556 29.773 10.9215 29.7897C10.6826 29.4468 10.4437 29.1123 10.1621 28.7192C10.1194 29.6559 10.7082 30.2748 11.1433 30.994C9.45392 30.0573 8.31057 28.2592 8.52388 26.503C8.62627 25.6499 8.96757 25.1983 9.78668 24.8805C12.9437 23.6846 16.1177 23.3417 19.3515 24.546C19.8549 24.73 20.3328 24.9809 20.8106 25.2234C20.93 25.2819 21.058 25.4241 21.1007 25.5496C21.7577 27.6069 20.7338 29.9737 18.6689 31.0191C19.1212 30.258 19.7014 29.6141 19.6672 28.6774ZM12.9863 24.638C14.4454 24.638 15.8959 24.638 17.227 24.638C15.9044 24.3035 14.4539 24.1027 12.9863 24.638Z" fill="white"/>
<path d="M3.81398 13.0884C3.51535 12.8292 3.25084 12.5448 2.92661 12.3274C2.43173 11.9928 1.97951 12.1099 1.7406 12.6535C1.29692 13.6906 1.33105 14.7443 1.74913 15.7814C1.80033 15.9068 1.89419 16.0406 2.00511 16.0992C2.12456 16.1661 2.31227 16.1912 2.43173 16.141C2.50852 16.1075 2.54265 15.8985 2.51705 15.7814C2.48292 15.5639 2.32934 15.3548 2.33787 15.1458C2.3464 14.9618 2.47439 14.6858 2.61944 14.6272C2.89248 14.5185 3.09726 14.7443 3.11432 15.0036C3.13992 15.5556 3.17405 16.1159 3.08019 16.6511C2.98634 17.2115 2.40613 17.3787 1.92832 17.0526C1.78326 16.9522 1.62968 16.8268 1.53582 16.6762C0.733776 15.3967 0.520465 14.0335 0.998281 12.595C1.18599 12.0263 1.61262 11.6583 2.26108 11.6249C2.88395 11.5998 3.31057 11.9092 3.60067 12.4277C3.71159 12.6284 3.78838 12.8543 3.87371 13.0633C3.85664 13.0717 3.83958 13.0801 3.81398 13.0884Z" fill="white"/>
<path d="M26.0921 13.1302C26.314 12.1016 26.9966 11.5245 27.7901 11.6332C28.3362 11.7085 28.7201 12.0179 28.8993 12.503C29.4368 13.9916 29.2235 15.4134 28.3532 16.7264C28.2338 16.9104 28.0034 17.0609 27.7901 17.1529C27.4147 17.3202 26.9624 17.1529 26.9027 16.7766C26.8089 16.1828 26.8089 15.5723 26.843 14.9701C26.8515 14.8447 27.1502 14.7276 27.3123 14.6022C27.4147 14.7778 27.5853 14.9534 27.6024 15.1374C27.6194 15.3298 27.4573 15.5305 27.4317 15.7312C27.4147 15.8734 27.4914 16.0323 27.5256 16.1744C27.6792 16.141 27.8669 16.141 27.9863 16.0574C28.1143 15.9654 28.2082 15.7981 28.2594 15.6476C28.5751 14.7192 28.6092 13.7826 28.2935 12.8626C28.029 12.0932 27.5 11.951 26.8515 12.4445C26.5955 12.6368 26.3822 12.871 26.0921 13.1302Z" fill="white"/>
<path d="M18.4386 17.7885C18.4044 17.7467 18.3703 17.6965 18.3447 17.6547C17.9864 17.1111 17.7389 16.4922 17.0649 16.1995C16.1263 15.7981 15.1792 15.497 14.1382 15.7312C14.07 15.7479 14.0017 15.7646 13.9249 15.7646C12.8584 15.7563 12.2014 16.3333 11.7236 17.1947C11.5956 17.4289 11.442 17.6631 11.2372 17.8638C11.4164 17.4373 11.5956 17.0108 11.7833 16.5842C11.2457 16.7264 10.7253 16.8602 10.2048 16.994C10.1963 16.9689 10.1963 16.9522 10.1877 16.9271C10.6655 16.693 11.1348 16.4588 11.6126 16.2246C11.6041 16.1912 11.5956 16.1577 11.5785 16.1243C10.5887 16.3333 9.59899 16.3835 8.62629 16.0323C8.85667 16.0323 9.08704 16.0323 9.30888 16.0323C8.28499 15.6225 7.6024 14.9283 7.09045 13.8578C7.66213 13.8578 8.16554 13.8411 8.66042 13.8662C9.1553 13.8913 9.64165 13.9498 10.2475 14.0084C9.25769 13.2724 8.16554 13.3895 7.13312 13.2306C8.48977 13.0048 9.7867 13.0466 11.0495 13.7324C12.1416 14.3178 13.3021 14.7694 14.4283 15.2963C14.8379 15.4887 15.2219 15.4636 15.6143 15.2796C16.5956 14.8029 17.6109 14.3931 18.541 13.8411C19.855 13.0633 21.2287 12.9797 22.6792 13.2306C21.6468 13.3895 20.5461 13.2557 19.6331 13.9247C20.6314 13.9247 21.6126 13.9247 22.6365 13.9247C22.1843 14.9116 21.4932 15.5974 20.4778 16.0239C20.7765 16.0072 21.0751 15.9904 21.3567 15.9821C20.7765 16.3166 19.855 16.3668 18.1655 16.1995C18.3874 16.325 18.6092 16.4588 18.8311 16.5759C19.07 16.693 19.3174 16.7849 19.5393 16.9857C19.0273 16.8519 18.5068 16.7097 17.9693 16.5675C18.1399 16.9606 18.3106 17.3453 18.4727 17.7384C18.4727 17.7634 18.4556 17.7802 18.4386 17.7885Z" fill="black"/>
<path d="M17.4061 20.0382C17.5 19.9546 17.5938 19.8793 17.6877 19.7957C16.8515 20.1721 15.9897 20.1302 15.0512 19.9713C15.5034 19.2856 15.9812 18.7169 16.6553 18.3238C17.0222 18.1063 17.4232 17.9809 17.8157 18.2485C18.2082 18.5161 18.3874 18.9176 18.3106 19.3776C18.2423 19.8375 17.8242 19.9463 17.4061 20.0382Z" fill="black"/>
<path d="M14.6758 19.9964C13.7628 20.1051 12.9522 20.1888 12.1075 19.779C12.1587 19.871 12.1672 19.9128 12.1928 19.9379C12.227 19.9797 12.2782 20.0048 12.2952 20.0717C11.9369 19.9797 11.5614 19.8793 11.4335 19.4863C11.2884 19.0514 11.4761 18.6583 11.7918 18.3489C12.0905 18.0478 12.4659 18.0645 12.8242 18.2234C13.6263 18.5663 14.1553 19.2103 14.6758 19.9964Z" fill="black"/>
<path d="M13.4727 16.4421C14.2662 15.8817 15.3584 15.8734 16.3225 16.4421C15.4095 16.4421 14.3942 16.4421 13.4727 16.4421Z" fill="black"/>
<path d="M13.2423 14.3178C15.0768 14.945 14.8635 14.8949 16.442 14.2258C15.5802 15.1959 14.5478 15.2294 13.2423 14.3178Z" fill="black"/>
<path d="M12.9864 24.638C14.4539 24.1111 15.9044 24.3035 17.227 24.638C15.8959 24.638 14.4369 24.638 12.9864 24.638Z" fill="black"/>
</svg>
