<svg width="20" height="20" viewBox="0 0 20 20" fill="none" xmlns="http://www.w3.org/2000/svg">
<path d="M19.3539 0.377014H0.646322C0.289983 0.377014 0 0.666997 0 1.02334V3.89602C0 4.25236 0.289983 4.54234 0.646322 4.54234H19.3537C19.7098 4.54234 20 4.25236 20 3.89602V1.02334C20.0002 0.666997 19.7102 0.377014 19.3539 0.377014Z" fill="white"/>
<path d="M19.3539 7.91745H0.646322C0.289983 7.91745 0 8.20743 0 8.56377V11.4365C0 11.7928 0.289983 12.0828 0.646322 12.0828H19.3537C19.7098 12.0828 20 11.7928 20 11.4365V8.56377C20.0002 8.20743 19.7102 7.91745 19.3539 7.91745Z" fill="white"/>
<path d="M19.3539 15.4579H0.646322C0.289983 15.4579 0 15.7478 0 16.1042V18.9769C0 19.3332 0.289983 19.6232 0.646322 19.6232H19.3537C19.7098 19.6232 20 19.3332 20 18.9769V16.1042C20.0002 15.7476 19.7102 15.4579 19.3539 15.4579Z" fill="white"/>
</svg>
