<?xml version="1.0" standalone="no"?>
<!DOCTYPE svg PUBLIC "-//W3C//DTD SVG 20010904//EN"
 "http://www.w3.org/TR/2001/REC-SVG-20010904/DTD/svg10.dtd">
<svg version="1.0" xmlns="http://www.w3.org/2000/svg"
 width="428.000000pt" height="428.000000pt" viewBox="0 0 428.000000 428.000000"
 preserveAspectRatio="xMidYMid meet">
<metadata>
Created by potrace 1.11, written by Peter Selinger 2001-2013
</metadata>
<g transform="translate(0.000000,428.000000) scale(0.100000,-0.100000)"
fill="#000000" stroke="none">
<path d="M2167 4184 c-1 -1 -40 -5 -86 -8 -45 -3 -86 -8 -89 -10 -4 -2 -25 -7
-47 -10 -22 -4 -69 -15 -105 -26 -53 -16 -127 -34 -215 -54 -5 -2 -46 -9 -89
-16 -65 -11 -76 -15 -62 -25 21 -16 20 -25 -3 -25 -41 0 -139 -57 -180 -104
-9 -10 -20 -23 -26 -30 -5 -6 -32 -45 -59 -86 -27 -41 -53 -76 -58 -78 -4 -2
-8 -10 -8 -17 0 -7 -4 -15 -8 -17 -5 -1 -22 -21 -38 -43 -16 -22 -39 -51 -51
-65 -12 -14 -32 -37 -45 -52 -13 -15 -36 -34 -53 -43 l-30 -17 58 6 58 6 -13
-24 c-26 -49 -139 -171 -247 -268 -29 -27 -49 -48 -44 -48 5 0 13 4 19 8 11
11 94 44 94 38 0 -3 -11 -26 -24 -53 -31 -63 -55 -135 -63 -190 -3 -24 -11
-47 -17 -51 -6 -3 -34 -7 -62 -8 -68 -1 -141 -42 -178 -97 -101 -156 -70 -473
60 -617 21 -23 49 -46 62 -51 21 -8 22 -13 17 -51 -4 -24 -9 -59 -11 -78 -10
-69 -59 -233 -85 -282 -10 -21 -9 -20 18 5 49 45 50 41 17 -78 -52 -191 -56
-299 -12 -376 24 -43 40 -51 38 -16 -6 74 12 107 25 45 9 -39 40 -113 55 -131
6 -6 21 -26 33 -44 25 -35 105 -123 112 -123 2 0 -3 16 -11 36 -20 48 -11 54
27 18 72 -68 116 -169 115 -261 -1 -24 2 -43 5 -43 11 0 40 80 34 91 -4 5 1 9
9 9 11 0 16 -10 17 -27 1 -62 37 -174 75 -239 28 -47 94 -118 168 -179 65 -55
70 -54 41 1 -14 26 -24 51 -23 56 2 4 46 -26 98 -68 188 -151 173 -140 166
-116 -10 31 -2 28 62 -22 65 -49 96 -66 193 -106 72 -29 80 -29 52 2 -9 10
-13 21 -10 24 3 4 70 -20 149 -52 79 -32 143 -57 144 -54 0 3 8 0 16 -7 12
-10 37 -3 134 37 65 28 130 56 144 62 14 6 30 12 35 14 6 1 18 5 28 9 26 11
21 -6 -10 -32 -22 -18 -24 -22 -10 -23 9 0 25 4 35 9 9 5 42 19 72 32 61 26
150 82 194 123 31 30 43 29 27 -2 -15 -28 -14 -36 2 -20 35 34 231 188 240
188 11 0 -2 -41 -19 -61 -35 -40 -8 -36 47 7 134 106 212 226 235 364 4 19 8
42 9 50 2 8 4 18 4 23 1 4 5 7 11 7 5 0 9 -3 8 -8 -3 -9 22 -84 31 -94 3 -4 7
14 8 40 6 113 39 192 111 259 45 43 56 42 37 -3 -21 -50 -20 -51 18 -13 78 80
153 199 163 259 12 70 29 67 29 -5 0 -30 4 -54 9 -52 5 2 20 24 34 50 18 35
24 63 24 105 -1 92 -7 128 -56 306 -9 32 -15 61 -12 63 2 3 18 -10 36 -28 l31
-33 -21 59 c-12 33 -24 67 -27 75 -3 8 -7 20 -8 25 -2 6 -8 30 -15 55 -14 51
-18 70 -24 120 -2 20 -7 47 -11 62 -5 21 -3 27 15 33 60 19 133 132 167 257
26 97 23 276 -7 352 -40 103 -126 165 -226 161 -43 -2 -54 1 -55 14 0 9 -2 23
-4 31 -2 8 -6 28 -8 43 -7 36 -42 128 -67 177 -11 22 -17 40 -13 40 5 0 30
-11 57 -25 27 -14 51 -25 54 -25 2 0 -47 51 -110 113 -122 120 -168 171 -168
187 0 5 -4 10 -10 10 -5 0 -10 7 -10 15 0 13 9 15 53 9 l52 -7 -39 28 c-43 29
-48 35 -149 169 -38 50 -75 99 -83 109 -8 9 -14 19 -14 22 0 13 -76 114 -107
141 -37 34 -132 84 -157 84 -19 0 -32 20 -14 21 7 1 18 1 23 -1 7 -1 7 2 0 9
-5 5 -28 12 -50 15 -34 4 -113 21 -245 52 -14 3 -32 7 -40 9 -8 2 -15 4 -15 5
0 2 -14 5 -53 14 -12 3 -26 8 -32 11 -9 6 -18 8 -100 20 -62 10 -170 22 -173
19z"/>
</g>
</svg>
